<?xml version="1.0" encoding="utf-8"?><svg viewBox="0 0 1440 169" xmlns="http://www.w3.org/2000/svg" xmlns:xlink="http://www.w3.org/1999/xlink"><style>:root>svg{display:none}:root>svg:target{display:block}</style><svg fill="none" viewBox="0 0 102 103" id="Frame" xmlns="http://www.w3.org/2000/svg"><path d="M100.772 41.258c1.336 7.718-6.86 5.662-6.86 5.662-3.43-9.665-8.918-8.764-8.918-8.764 4.297 3.138 4.622 5.807 4.622 5.807-11.446-8.115-27.008-1.587-32.93 1.478-3.32-4.688-10.037-15.183-7.654-19.943 3.142-6.24 9.532-2.67 9.532-2.67 12.926-.215 12.204-4.832 12.204-4.832-3.43 2.669-13.54 0-13.54 0 8.774 0 12.493-3.57 12.493-3.57-6.535 1.623-13.829-5.338-13.829-5.338-2.671-13.668-15.02-7.862-15.02-7.862C48.6-.108 46.541 8.08 46.541 8.08c-9.676 3.426-8.774 8.907-8.774 8.907 3.141-4.291 5.813-4.616 5.813-4.616-8.846 12.442-.325 29.753 2.203 34.261-4.622 3.21-15.454 10.279-20.328 7.826-6.246-3.137-2.672-9.52-2.672-9.52-.144-12.912-4.766-12.19-4.766-12.19 2.672 3.426 0 13.524 0 13.524 0-8.764-3.574-12.479-3.574-12.479 1.624 6.528-5.344 13.813-5.344 13.813-13.684 2.669-7.871 15.003-7.871 15.003-1.336-7.718 6.86-5.662 6.86-5.662 3.43 9.665 8.918 8.764 8.918 8.764-4.296-3.138-4.622-5.807-4.622-5.807 12.096 8.583 28.813.794 33.868-1.947 3.394 4.868 9.713 14.894 7.366 19.546-3.141 6.24-9.532 2.67-9.532 2.67-12.926.144-12.204 4.76-12.204 4.76 3.43-2.669 13.54 0 13.54 0-8.774 0-12.493 3.57-12.493 3.57 6.535-1.623 13.829 5.338 13.829 5.338 2.671 13.668 15.02 7.862 15.02 7.862-7.727 1.334-5.669-6.852-5.669-6.852 9.677-3.427 8.774-8.908 8.774-8.908-3.141 4.291-5.813 4.616-5.813 4.616 8.665-12.154.686-28.996-2.022-33.937 4.91-3.426 14.84-9.557 19.425-7.249 6.246 3.138 2.672 9.521 2.672 9.521.144 12.911 4.766 12.19 4.766 12.19-2.672-3.426 0-13.524 0-13.524 0 8.764 3.574 12.478 3.574 12.478-1.624-6.528 5.344-13.813 5.344-13.813 13.757-2.632 7.943-14.966 7.943-14.966Z" fill="url(#fa)"/><defs><linearGradient id="fa" x1="50.997" y1=".001" x2="50.997" y2="102.927" gradientUnits="userSpaceOnUse"><stop stop-color="#C0B7E8"/><stop offset="1" stop-color="#8176AF"/></linearGradient></defs></svg><svg fill="none" viewBox="0 0 46 34" id="arrow" xmlns="http://www.w3.org/2000/svg"><path d="M43.833 17H2.167m41.666 0L27.167 32.333M43.833 17 27.167 1.667" stroke="#C0B7E8" stroke-width="3" stroke-linecap="round" stroke-linejoin="round"/></svg><svg fill="none" viewBox="0 0 33 27" id="arrow-how-to" xmlns="http://www.w3.org/2000/svg"><path d="M30.458 13.5H2.542m27.916 0L19.292 24.667M30.458 13.5 19.292 2.334" stroke="#C0B7E8" stroke-width="4" stroke-linecap="round" stroke-linejoin="round"/></svg><svg fill="none" viewBox="0 0 24 24" id="arrow-left" xmlns="http://www.w3.org/2000/svg"><path d="M14.5 18.25 8.25 12l6.25-6.25M.75 12c0 6.213 5.037 11.25 11.25 11.25S23.25 18.213 23.25 12 18.213.75 12 .75.75 5.787.75 12Z" stroke="#fff" stroke-width="1.5" stroke-linecap="round" stroke-linejoin="round"/></svg><svg fill="none" viewBox="0 0 24 24" id="arrow-right" xmlns="http://www.w3.org/2000/svg"><path d="M9.5 18.25 15.75 12 9.5 5.75M23.25 12c0 6.213-5.037 11.25-11.25 11.25S.75 18.213.75 12 5.787.75 12 .75 23.25 5.787 23.25 12Z" stroke="#fff" stroke-width="1.5" stroke-linecap="round" stroke-linejoin="round"/></svg><svg fill="none" viewBox="0 0 228 100" id="big-arrow" xmlns="http://www.w3.org/2000/svg"><path d="M198.833 50h-41.666m41.666 0-16.666 16.667M198.833 50l-16.666-16.667" stroke="#C0B7E8" stroke-width="3" stroke-linecap="round" stroke-linejoin="round"/><path d="M199 50H0" stroke="#C0B7E8" stroke-width="3"/></svg><svg fill="none" viewBox="0 0 76 46" id="header-title" xmlns="http://www.w3.org/2000/svg"><g clip-path="url(#ga)"><path d="M0 0h2.32v27.405h6.93V0h2.322v46H9.25V29.713H2.32V46H0V0Z" fill="url(#gb)"/><path d="M28.733 0 22.98 29.713V46h-2.321V29.713L14.873 0h2.125l4.838 24.772L26.64 0h2.092Z" fill="url(#gc)"/><path d="M38.997 46h-6.963V0h6.93c2.583 0 4.61 2.048 4.61 4.584v36.8C43.605 43.887 41.546 46 38.996 46ZM34.355 2.308v41.384h4.61c1.241 0 2.32-1.04 2.32-2.308v-36.8c0-1.236-1.046-2.308-2.32-2.308h-4.61v.032Z" fill="url(#gd)"/><path d="M58.806 46H56.42l-4.086-16.287h-2.779V46h-2.32V0h6.93c2.582 0 4.608 2.048 4.608 4.584v20.513c0 2.308-1.798 4.258-4.086 4.518L58.806 46Zm-9.25-18.595h4.608c1.242 0 2.321-1.04 2.321-2.308V4.584c0-1.236-1.046-2.308-2.32-2.308h-4.61v25.129Z" fill="url(#ge)"/><path d="M65.801 29.713 64.2 46h-2.093L66.75 0h4.61l4.608 46h-2.092l-1.602-16.287h-6.472Zm3.694-27.405h-.915l-2.517 25.097h5.949L69.495 2.308Z" fill="url(#gf)"/></g><defs><linearGradient id="gb" x1="5.786" y1="0" x2="5.786" y2="46" gradientUnits="userSpaceOnUse"><stop stop-color="#C0B7E8"/><stop offset="1" stop-color="#8176AF"/></linearGradient><linearGradient id="gc" x1="21.803" y1="0" x2="21.803" y2="46" gradientUnits="userSpaceOnUse"><stop stop-color="#C0B7E8"/><stop offset="1" stop-color="#8176AF"/></linearGradient><linearGradient id="gd" x1="37.804" y1="0" x2="37.804" y2="46" gradientUnits="userSpaceOnUse"><stop stop-color="#C0B7E8"/><stop offset="1" stop-color="#8176AF"/></linearGradient><linearGradient id="ge" x1="53.02" y1="0" x2="53.02" y2="46" gradientUnits="userSpaceOnUse"><stop stop-color="#C0B7E8"/><stop offset="1" stop-color="#8176AF"/></linearGradient><linearGradient id="gf" x1="69.037" y1="0" x2="69.037" y2="46" gradientUnits="userSpaceOnUse"><stop stop-color="#C0B7E8"/><stop offset="1" stop-color="#8176AF"/></linearGradient><clipPath id="ga"><path fill="#fff" d="M0 0h76v46H0z"/></clipPath></defs></svg><svg fill="none" viewBox="0 0 1440 169" id="how-to" xmlns="http://www.w3.org/2000/svg"><path d="M-9 21.733c15.478 49.688 97.05 159.51 254.37 85.035C350.5 57 405.361 2.726 539.107 91.262s237.21 82.534 302.316-9.004C906.53-9.279 1076.11-33.789 1139.7 74.755c63.59 108.545 278.09 121.55 300.3 32.013" stroke="url(#ha)" stroke-width="6"/><defs><linearGradient id="ha" x1=".5" y1="85" x2="1440" y2="85" gradientUnits="userSpaceOnUse"><stop stop-color="#343045"/><stop offset=".302" stop-color="#C0B7E8"/><stop offset=".74" stop-color="#8176AF"/><stop offset="1" stop-color="#343045"/></linearGradient></defs></svg></svg>