<?xml version="1.0" encoding="utf-8"?><svg viewBox="0 0 1440 196" xmlns="http://www.w3.org/2000/svg" xmlns:xlink="http://www.w3.org/1999/xlink"><style>:root>svg{display:none}:root>svg:target{display:block}</style><svg fill="none" viewBox="0 0 102 103" id="Frame" xmlns="http://www.w3.org/2000/svg"><path d="M100.772 41.258c1.336 7.718-6.86 5.662-6.86 5.662-3.43-9.665-8.918-8.764-8.918-8.764 4.297 3.138 4.622 5.807 4.622 5.807-11.446-8.115-27.008-1.587-32.93 1.478-3.32-4.688-10.037-15.183-7.654-19.943 3.142-6.24 9.532-2.67 9.532-2.67 12.926-.215 12.204-4.832 12.204-4.832-3.43 2.669-13.54 0-13.54 0 8.774 0 12.493-3.57 12.493-3.57-6.535 1.623-13.829-5.338-13.829-5.338-2.671-13.668-15.02-7.862-15.02-7.862C48.6-.108 46.541 8.08 46.541 8.08c-9.676 3.426-8.774 8.907-8.774 8.907 3.141-4.291 5.813-4.616 5.813-4.616-8.846 12.442-.325 29.753 2.203 34.261-4.622 3.21-15.454 10.279-20.328 7.826-6.246-3.137-2.672-9.52-2.672-9.52-.144-12.912-4.766-12.19-4.766-12.19 2.672 3.426 0 13.524 0 13.524 0-8.764-3.574-12.479-3.574-12.479 1.624 6.528-5.344 13.813-5.344 13.813-13.684 2.669-7.871 15.003-7.871 15.003-1.336-7.718 6.86-5.662 6.86-5.662 3.43 9.665 8.918 8.764 8.918 8.764-4.296-3.138-4.622-5.807-4.622-5.807 12.096 8.583 28.813.794 33.868-1.947 3.394 4.868 9.713 14.894 7.366 19.546-3.141 6.24-9.532 2.67-9.532 2.67-12.926.144-12.204 4.76-12.204 4.76 3.43-2.669 13.54 0 13.54 0-8.774 0-12.493 3.57-12.493 3.57 6.535-1.623 13.829 5.338 13.829 5.338 2.671 13.668 15.02 7.862 15.02 7.862-7.727 1.334-5.669-6.852-5.669-6.852 9.677-3.427 8.774-8.908 8.774-8.908-3.141 4.291-5.813 4.616-5.813 4.616 8.665-12.154.686-28.996-2.022-33.937 4.91-3.426 14.84-9.557 19.425-7.249 6.246 3.138 2.672 9.521 2.672 9.521.144 12.911 4.766 12.19 4.766 12.19-2.672-3.426 0-13.524 0-13.524 0 8.764 3.574 12.478 3.574 12.478-1.624-6.528 5.344-13.813 5.344-13.813 13.757-2.632 7.943-14.966 7.943-14.966Z" fill="url(#ha)"/><defs><linearGradient id="ha" x1="50.997" y1=".001" x2="50.997" y2="102.927" gradientUnits="userSpaceOnUse"><stop stop-color="#C0B7E8"/><stop offset="1" stop-color="#8176AF"/></linearGradient></defs></svg><svg fill="none" viewBox="0 0 46 34" id="arrow" xmlns="http://www.w3.org/2000/svg"><path d="M43.833 17H2.167m41.666 0L27.167 32.333M43.833 17 27.167 1.667" stroke="#C0B7E8" stroke-width="3" stroke-linecap="round" stroke-linejoin="round"/></svg><svg fill="none" viewBox="0 0 33 27" id="arrow-how-to" xmlns="http://www.w3.org/2000/svg"><path d="M30.458 13.5H2.542m27.916 0L19.292 24.667M30.458 13.5 19.292 2.334" stroke="#C0B7E8" stroke-width="4" stroke-linecap="round" stroke-linejoin="round"/></svg><svg fill="none" viewBox="0 0 24 24" id="arrow-left" xmlns="http://www.w3.org/2000/svg"><path d="M14.5 18.25 8.25 12l6.25-6.25M.75 12c0 6.213 5.037 11.25 11.25 11.25S23.25 18.213 23.25 12 18.213.75 12 .75.75 5.787.75 12Z" stroke="#fff" stroke-width="1.5" stroke-linecap="round" stroke-linejoin="round"/></svg><svg fill="none" viewBox="0 0 24 24" id="arrow-right" xmlns="http://www.w3.org/2000/svg"><path d="M9.5 18.25 15.75 12 9.5 5.75M23.25 12c0 6.213-5.037 11.25-11.25 11.25S.75 18.213.75 12 5.787.75 12 .75 23.25 5.787 23.25 12Z" stroke="#fff" stroke-width="1.5" stroke-linecap="round" stroke-linejoin="round"/></svg><svg fill="none" viewBox="0 0 228 100" id="big-arrow" xmlns="http://www.w3.org/2000/svg"><path d="M198.833 50h-41.666m41.666 0-16.666 16.667M198.833 50l-16.666-16.667" stroke="#C0B7E8" stroke-width="3" stroke-linecap="round" stroke-linejoin="round"/><path d="M199 50H0" stroke="#C0B7E8" stroke-width="3"/></svg><svg fill="none" viewBox="0 0 1269 2" id="footer-bottom-line" xmlns="http://www.w3.org/2000/svg"><path d="M0 1h1269" stroke="url(#fa)"/><defs><linearGradient id="fa" x1="1269" y1="1.002" x2="0" y2=".98" gradientUnits="userSpaceOnUse"><stop stop-color="#343045"/><stop offset=".349" stop-color="#C0B7E8"/><stop offset=".688" stop-color="#8176AF"/><stop offset="1" stop-color="#343045"/></linearGradient></defs></svg><svg fill="none" viewBox="0 0 6 196" id="footer-line" xmlns="http://www.w3.org/2000/svg"><path d="M3 196V0" stroke="url(#ga)" stroke-width="6"/><defs><linearGradient id="ga" x1="2.995" y1=".93" x2="77.322" y2="162.259" gradientUnits="userSpaceOnUse"><stop stop-color="#343045"/><stop stop-color="#343045"/><stop offset=".349" stop-color="#C0B7E8"/><stop offset=".688" stop-color="#8176AF"/><stop offset=".995" stop-color="#343045"/></linearGradient></defs></svg><svg fill="none" viewBox="0 0 76 46" id="header-title" xmlns="http://www.w3.org/2000/svg"><g clip-path="url(#ia)"><path d="M0 0h2.32v27.405h6.93V0h2.322v46H9.25V29.713H2.32V46H0V0Z" fill="url(#ib)"/><path d="M28.733 0 22.98 29.713V46h-2.321V29.713L14.873 0h2.125l4.838 24.772L26.64 0h2.092Z" fill="url(#ic)"/><path d="M38.997 46h-6.963V0h6.93c2.583 0 4.61 2.048 4.61 4.584v36.8C43.605 43.887 41.546 46 38.996 46ZM34.355 2.308v41.384h4.61c1.241 0 2.32-1.04 2.32-2.308v-36.8c0-1.236-1.046-2.308-2.32-2.308h-4.61v.032Z" fill="url(#id)"/><path d="M58.806 46H56.42l-4.086-16.287h-2.779V46h-2.32V0h6.93c2.582 0 4.608 2.048 4.608 4.584v20.513c0 2.308-1.798 4.258-4.086 4.518L58.806 46Zm-9.25-18.595h4.608c1.242 0 2.321-1.04 2.321-2.308V4.584c0-1.236-1.046-2.308-2.32-2.308h-4.61v25.129Z" fill="url(#ie)"/><path d="M65.801 29.713 64.2 46h-2.093L66.75 0h4.61l4.608 46h-2.092l-1.602-16.287h-6.472Zm3.694-27.405h-.915l-2.517 25.097h5.949L69.495 2.308Z" fill="url(#if)"/></g><defs><linearGradient id="ib" x1="5.786" y1="0" x2="5.786" y2="46" gradientUnits="userSpaceOnUse"><stop stop-color="#C0B7E8"/><stop offset="1" stop-color="#8176AF"/></linearGradient><linearGradient id="ic" x1="21.803" y1="0" x2="21.803" y2="46" gradientUnits="userSpaceOnUse"><stop stop-color="#C0B7E8"/><stop offset="1" stop-color="#8176AF"/></linearGradient><linearGradient id="id" x1="37.804" y1="0" x2="37.804" y2="46" gradientUnits="userSpaceOnUse"><stop stop-color="#C0B7E8"/><stop offset="1" stop-color="#8176AF"/></linearGradient><linearGradient id="ie" x1="53.02" y1="0" x2="53.02" y2="46" gradientUnits="userSpaceOnUse"><stop stop-color="#C0B7E8"/><stop offset="1" stop-color="#8176AF"/></linearGradient><linearGradient id="if" x1="69.037" y1="0" x2="69.037" y2="46" gradientUnits="userSpaceOnUse"><stop stop-color="#C0B7E8"/><stop offset="1" stop-color="#8176AF"/></linearGradient><clipPath id="ia"><path fill="#fff" d="M0 0h76v46H0z"/></clipPath></defs></svg><svg fill="none" viewBox="0 0 1440 169" id="how-to" xmlns="http://www.w3.org/2000/svg"><path d="M-9 21.733c15.478 49.688 97.05 159.51 254.37 85.035C350.5 57 405.361 2.726 539.107 91.262s237.21 82.534 302.316-9.004C906.53-9.279 1076.11-33.789 1139.7 74.755c63.59 108.545 278.09 121.55 300.3 32.013" stroke="url(#ja)" stroke-width="6"/><defs><linearGradient id="ja" x1=".5" y1="85" x2="1440" y2="85" gradientUnits="userSpaceOnUse"><stop stop-color="#343045"/><stop offset=".302" stop-color="#C0B7E8"/><stop offset=".74" stop-color="#8176AF"/><stop offset="1" stop-color="#343045"/></linearGradient></defs></svg><svg fill="none" viewBox="0 0 32 32" id="icons--facebook" xmlns="http://www.w3.org/2000/svg"><path fill-rule="evenodd" clip-rule="evenodd" d="M0 16C0 7.163 7.163 0 16 0s16 7.163 16 16-7.163 16-16 16S0 24.837 0 16Zm16-8c4.4 0 8 3.6 8 8 0 4-2.9 7.4-6.9 8v-5.7H19l.4-2.3h-2.2v-1.5c0-.6.3-1.2 1.3-1.2h1v-2s-.9-.2-1.8-.2c-1.8 0-3 1.1-3 3.1V16h-2v2.3h2v5.6C10.9 23.3 8 20 8 16c0-4.4 3.6-8 8-8Z" fill="#C0B7E8"/></svg><svg fill="none" viewBox="0 0 32 32" id="icons--instagram" xmlns="http://www.w3.org/2000/svg"><g fill="#C0B7E8"><path d="M16 18.8c-1.5 0-2.8-1.2-2.8-2.8 0-1.5 1.2-2.8 2.8-2.8 1.5 0 2.8 1.2 2.8 2.8 0 1.5-1.3 2.8-2.8 2.8Z"/><path fill-rule="evenodd" clip-rule="evenodd" d="M19.4 9.2h-6.8c-.8.1-1.2.2-1.5.3-.4.1-.7.3-1 .6-.237.237-.35.475-.485.762-.036.075-.073.155-.115.238a5.48 5.48 0 0 1-.052.148A3.53 3.53 0 0 0 9.2 12.6v6.8c.1.8.2 1.2.3 1.5.1.4.3.7.6 1 .237.237.475.35.762.485.075.036.155.073.238.115.046.015.095.033.148.052a3.53 3.53 0 0 0 1.352.248h6.8c.8-.1 1.2-.2 1.5-.3.4-.1.7-.3 1-.6.237-.237.35-.475.485-.762.036-.075.073-.155.115-.238.015-.046.033-.095.052-.147A3.53 3.53 0 0 0 22.8 19.4v-6.8c-.1-.8-.2-1.2-.3-1.5-.1-.4-.3-.7-.6-1-.237-.237-.475-.35-.762-.485A11.461 11.461 0 0 1 20.9 9.5c-.046-.015-.095-.033-.147-.052A3.53 3.53 0 0 0 19.4 9.2ZM16 11.7c-2.4 0-4.3 1.9-4.3 4.3s1.9 4.3 4.3 4.3 4.3-1.9 4.3-4.3-1.9-4.3-4.3-4.3Zm5.4-.1a1 1 0 1 1-2 0 1 1 0 0 1 2 0Z"/><path fill-rule="evenodd" clip-rule="evenodd" d="M0 16C0 7.163 7.163 0 16 0s16 7.163 16 16-7.163 16-16 16S0 24.837 0 16Zm12.6-8.3h6.8c.9.1 1.5.2 2 .4.6.3 1 .5 1.5 1s.8 1 1 1.5c.2.5.4 1.1.4 2v6.8c-.1.9-.2 1.5-.4 2-.3.6-.5 1-1 1.5s-1 .8-1.5 1c-.5.2-1.1.4-2 .4h-6.8c-.9-.1-1.5-.2-2-.4-.6-.3-1-.5-1.5-1s-.8-1-1-1.5c-.2-.5-.4-1.1-.4-2v-6.8c.1-.9.2-1.5.4-2 .3-.6.5-1 1-1.5s1-.8 1.5-1c.5-.2 1.1-.4 2-.4Z"/></g></svg><svg fill="none" viewBox="0 0 32 32" id="icons--linkedin" xmlns="http://www.w3.org/2000/svg"><path fill-rule="evenodd" clip-rule="evenodd" d="M0 16C0 7.163 7.163 0 16 0s16 7.163 16 16-7.163 16-16 16S0 24.837 0 16Zm8.2-2.7V24h3.4V13.3H8.2ZM8 9.9c0 1.1.8 1.9 1.9 1.9 1.1 0 1.9-.8 1.9-1.9C11.8 8.8 11 8 9.9 8 8.9 8 8 8.8 8 9.9ZM20.6 24h3.2v-6.6c0-3.3-2-4.4-3.9-4.4-1.7 0-2.9 1.1-3.2 1.8v-1.5h-3.2V24h3.4v-5.7c0-1.5 1-2.3 2-2.3s1.7.5 1.7 2.2V24Z" fill="#C0B7E8"/></svg><svg fill="none" viewBox="0 0 32 32" id="icons--pinterest" xmlns="http://www.w3.org/2000/svg"><path fill-rule="evenodd" clip-rule="evenodd" d="M0 16C0 7.163 7.163 0 16 0s16 7.163 16 16-7.163 16-16 16S0 24.837 0 16Zm8 0c0-4.4 3.6-8 8-8s8 3.6 7.9 7.6c0 4.4-3.6 8-8 8-.8 0-1.6-.1-2.3-.3.3-.5.6-1.1.8-1.7.1-.4.6-2.2.6-2.2.3.5 1.1 1 2 1 2.6 0 4.3-2.4 4.3-5.5 0-2.4-2-4.6-5.1-4.6-3.8 0-5.7 2.7-5.7 5 0 1.4.5 2.6 1.6 3.1.2.1.3 0 .4-.2.1-.1.2-.5.2-.6.07-.141.041-.183-.017-.266-.024-.034-.054-.075-.083-.134-.3-.4-.5-.9-.5-1.6 0-2 1.5-3.8 3.9-3.8 2.1 0 3.3 1.3 3.3 3.1 0 2.4-1 4.3-2.5 4.3-.9 0-1.5-.7-1.3-1.5.084-.417.22-.852.35-1.268.18-.58.35-1.124.35-1.532 0-.7-.4-1.2-1.1-1.2-.8 0-1.5.9-1.5 2.1 0 .8.3 1.3.3 1.3s-.8 3.7-1 4.4c-.1.6-.1 1.2-.1 1.8C10 22.1 8 19.3 8 16Z" fill="#C0B7E8"/></svg><svg fill="none" viewBox="0 0 32 32" id="icons--twitter" xmlns="http://www.w3.org/2000/svg"><path fill-rule="evenodd" clip-rule="evenodd" d="M0 16C0 7.163 7.163 0 16 0s16 7.163 16 16-7.163 16-16 16S0 24.837 0 16Zm22.1-4.5c.7-.1 1.3-.2 1.9-.5-.4.7-1 1.3-1.7 1.7.2 4.7-3.2 9.8-9.3 9.8-1.8 0-3.5-.6-5-1.5 1.7.2 3.5-.3 4.7-1.2-1.5 0-2.7-1-3.1-2.3.5.1 1 0 1.5-.1-1.5-.4-2.6-1.8-2.6-3.3.5.2 1 .4 1.5.4-1.4-1-1.9-2.9-1-4.4 1.7 2 4.1 3.3 6.8 3.4-.5-2 1.1-4 3.2-4 .9 0 1.8.4 2.4 1 .8-.2 1.5-.4 2.1-.8-.2.8-.7 1.4-1.4 1.8Z" fill="#C0B7E8"/></svg><svg fill="none" viewBox="0 0 32 32" id="icons--youtube" xmlns="http://www.w3.org/2000/svg"><g fill="#C0B7E8"><path d="m18.6 16-4.2-2.4v4.8l4.2-2.4Z"/><path fill-rule="evenodd" clip-rule="evenodd" d="M0 16C0 7.163 7.163 0 16 0s16 7.163 16 16-7.163 16-16 16S0 24.837 0 16Zm22.2-5.3c.7.2 1.2.7 1.4 1.4.4 1.3.4 3.9.4 3.9s0 2.6-.3 3.9c-.2.7-.7 1.2-1.4 1.4-1.3.3-6.3.3-6.3.3s-5.1 0-6.3-.3c-.7-.2-1.2-.7-1.4-1.4C8 18.6 8 16 8 16s0-2.6.2-3.9c.2-.7.7-1.2 1.4-1.4 1.3-.3 6.3-.3 6.3-.3s5.1 0 6.3.3Z"/></g></svg></svg>